# xmcd
#
# Track frame offsets:
#	150
#	12546
#	32151
#	48198
#	64560
#	79918
#	96386
#	111049
#	128996
#	146809
#	163210
#	178789
#	195883
#	212180
#	227741
#
# Disc length: 3265 seconds
#
# Revision: 0
# Processed by: cddbd v1.5.2PL0 Copyright (c) Steve Scherf et al.
# Submitted via: audiograbber 1.83.01
#
DISCID=d40cbf0f
DTITLE=Martina McBride - CB90026
DYEAR=1900
DGENRE=Karaoke
TTITLE0=Martina McBride - My Baby Loves Me
TTITLE1=Martina McBride - Life #9
TTITLE2=Martina McBride - Independence Day
TTITLE3=Martina McBride - Heart Trouble
TTITLE4=Martina McBride - Safe In The Arms Of Love
TTITLE5=Martina McBride - Wild Angels
TTITLE6=Martina McBride - Cry On The Shoulder Of The Road
TTITLE7=Martina McBride - That's Me
TTITLE8=Martina McBride - Where I Used To Have A Heart
TTITLE9=Martina McBride - Swingin' Doors
TTITLE10=Martina McBride - Valentine
TTITLE11=Martina McBride - A Broken Wing
TTITLE12=Martina McBride - Happy Girl
TTITLE13=Martina McBride - Wrong Again
TTITLE14=Martina McBride - Be That Way
EXTD=
EXTT0=
EXTT1=
EXTT2=
EXTT3=
EXTT4=
EXTT5=
EXTT6=
EXTT7=
EXTT8=
EXTT9=
EXTT10=
EXTT11=
EXTT12=
EXTT13=
EXTT14=
PLAYORDER=
